<mxfile host="app.diagrams.net" modified="2023-09-15T16:44:12.622Z" agent="Mozilla/5.0 (Macintosh; Intel Mac OS X 10_15_7) AppleWebKit/537.36 (KHTML, like Gecko) Chrome/116.0.0.0 Safari/537.36" etag="or-Iykq81kLd1uL6gu3q" version="21.7.5" type="github">
  <diagram id="C5RBs43oDa-KdzZeNtuy" name="Page-1">
    <mxGraphModel dx="1100" dy="800" grid="1" gridSize="10" guides="1" tooltips="1" connect="1" arrows="1" fold="1" page="1" pageScale="1" pageWidth="827" pageHeight="1169" math="0" shadow="0">
      <root>
        <mxCell id="WIyWlLk6GJQsqaUBKTNV-0" />
        <mxCell id="WIyWlLk6GJQsqaUBKTNV-1" parent="WIyWlLk6GJQsqaUBKTNV-0" />
        <mxCell id="E1ZKKMimq9F_YJrORxx0-8" style="edgeStyle=orthogonalEdgeStyle;rounded=0;orthogonalLoop=1;jettySize=auto;html=1;exitX=0.5;exitY=1;exitDx=0;exitDy=0;entryX=0.5;entryY=0;entryDx=0;entryDy=0;" edge="1" parent="WIyWlLk6GJQsqaUBKTNV-1" source="WIyWlLk6GJQsqaUBKTNV-3" target="E1ZKKMimq9F_YJrORxx0-0">
          <mxGeometry relative="1" as="geometry" />
        </mxCell>
        <mxCell id="WIyWlLk6GJQsqaUBKTNV-3" value="START" style="rounded=1;whiteSpace=wrap;html=1;fontSize=12;glass=0;strokeWidth=1;shadow=0;" parent="WIyWlLk6GJQsqaUBKTNV-1" vertex="1">
          <mxGeometry x="354" y="40" width="120" height="40" as="geometry" />
        </mxCell>
        <mxCell id="E1ZKKMimq9F_YJrORxx0-9" style="edgeStyle=orthogonalEdgeStyle;rounded=0;orthogonalLoop=1;jettySize=auto;html=1;exitX=0.5;exitY=1;exitDx=0;exitDy=0;entryX=0.5;entryY=0;entryDx=0;entryDy=0;" edge="1" parent="WIyWlLk6GJQsqaUBKTNV-1" source="E1ZKKMimq9F_YJrORxx0-0" target="E1ZKKMimq9F_YJrORxx0-1">
          <mxGeometry relative="1" as="geometry" />
        </mxCell>
        <mxCell id="E1ZKKMimq9F_YJrORxx0-0" value="Print Logo, &lt;br&gt;Dealer and User both get two random cards." style="rounded=1;whiteSpace=wrap;html=1;fontSize=12;glass=0;strokeWidth=1;shadow=0;" vertex="1" parent="WIyWlLk6GJQsqaUBKTNV-1">
          <mxGeometry x="346" y="110" width="136" height="50" as="geometry" />
        </mxCell>
        <mxCell id="E1ZKKMimq9F_YJrORxx0-10" style="edgeStyle=orthogonalEdgeStyle;rounded=0;orthogonalLoop=1;jettySize=auto;html=1;exitX=0.5;exitY=1;exitDx=0;exitDy=0;entryX=0.5;entryY=0;entryDx=0;entryDy=0;" edge="1" parent="WIyWlLk6GJQsqaUBKTNV-1" source="E1ZKKMimq9F_YJrORxx0-1" target="E1ZKKMimq9F_YJrORxx0-15">
          <mxGeometry relative="1" as="geometry">
            <mxPoint x="414" y="390" as="targetPoint" />
          </mxGeometry>
        </mxCell>
        <mxCell id="E1ZKKMimq9F_YJrORxx0-1" value="Add up User and Dealer scores" style="rounded=1;whiteSpace=wrap;html=1;fontSize=12;glass=0;strokeWidth=1;shadow=0;" vertex="1" parent="WIyWlLk6GJQsqaUBKTNV-1">
          <mxGeometry x="339" y="190" width="150" height="70" as="geometry" />
        </mxCell>
        <mxCell id="E1ZKKMimq9F_YJrORxx0-6" value="GAME OVER &lt;br&gt;(you lose!)" style="rounded=1;whiteSpace=wrap;html=1;fillColor=#f8cecc;strokeColor=#b85450;" vertex="1" parent="WIyWlLk6GJQsqaUBKTNV-1">
          <mxGeometry x="174" y="1040" width="120" height="60" as="geometry" />
        </mxCell>
        <mxCell id="E1ZKKMimq9F_YJrORxx0-19" style="edgeStyle=orthogonalEdgeStyle;rounded=0;orthogonalLoop=1;jettySize=auto;html=1;exitX=0;exitY=0.5;exitDx=0;exitDy=0;entryX=0;entryY=0.75;entryDx=0;entryDy=0;" edge="1" parent="WIyWlLk6GJQsqaUBKTNV-1" source="E1ZKKMimq9F_YJrORxx0-15" target="E1ZKKMimq9F_YJrORxx0-6">
          <mxGeometry relative="1" as="geometry">
            <mxPoint x="70" y="1100" as="targetPoint" />
            <Array as="points">
              <mxPoint x="70" y="325" />
              <mxPoint x="70" y="1085" />
            </Array>
          </mxGeometry>
        </mxCell>
        <mxCell id="E1ZKKMimq9F_YJrORxx0-20" value="DEALER HAS BJ" style="edgeLabel;html=1;align=center;verticalAlign=middle;resizable=0;points=[];" vertex="1" connectable="0" parent="E1ZKKMimq9F_YJrORxx0-19">
          <mxGeometry x="-0.7376" relative="1" as="geometry">
            <mxPoint x="33" y="-15" as="offset" />
          </mxGeometry>
        </mxCell>
        <mxCell id="E1ZKKMimq9F_YJrORxx0-22" style="edgeStyle=orthogonalEdgeStyle;rounded=0;orthogonalLoop=1;jettySize=auto;html=1;exitX=1;exitY=0.5;exitDx=0;exitDy=0;entryX=1;entryY=0.75;entryDx=0;entryDy=0;" edge="1" parent="WIyWlLk6GJQsqaUBKTNV-1" source="E1ZKKMimq9F_YJrORxx0-15" target="E1ZKKMimq9F_YJrORxx0-21">
          <mxGeometry relative="1" as="geometry">
            <mxPoint x="720" y="1055" as="targetPoint" />
            <Array as="points">
              <mxPoint x="770" y="325" />
              <mxPoint x="770" y="1085" />
            </Array>
          </mxGeometry>
        </mxCell>
        <mxCell id="E1ZKKMimq9F_YJrORxx0-23" value="USER HAS BJ" style="edgeLabel;html=1;align=center;verticalAlign=middle;resizable=0;points=[];" vertex="1" connectable="0" parent="E1ZKKMimq9F_YJrORxx0-22">
          <mxGeometry x="-0.766" y="3" relative="1" as="geometry">
            <mxPoint x="-55" y="-12" as="offset" />
          </mxGeometry>
        </mxCell>
        <mxCell id="E1ZKKMimq9F_YJrORxx0-25" style="edgeStyle=orthogonalEdgeStyle;rounded=0;orthogonalLoop=1;jettySize=auto;html=1;exitX=0.5;exitY=1;exitDx=0;exitDy=0;entryX=0.5;entryY=0;entryDx=0;entryDy=0;" edge="1" parent="WIyWlLk6GJQsqaUBKTNV-1" source="E1ZKKMimq9F_YJrORxx0-15" target="E1ZKKMimq9F_YJrORxx0-28">
          <mxGeometry relative="1" as="geometry">
            <mxPoint x="414" y="420" as="targetPoint" />
          </mxGeometry>
        </mxCell>
        <mxCell id="E1ZKKMimq9F_YJrORxx0-26" value="NO" style="edgeLabel;html=1;align=center;verticalAlign=middle;resizable=0;points=[];" vertex="1" connectable="0" parent="E1ZKKMimq9F_YJrORxx0-25">
          <mxGeometry x="-0.0417" relative="1" as="geometry">
            <mxPoint x="1" as="offset" />
          </mxGeometry>
        </mxCell>
        <mxCell id="E1ZKKMimq9F_YJrORxx0-15" value="Does User or Dealer have Blackjack? (Ace + 10, J, Q, or K)" style="rhombus;whiteSpace=wrap;html=1;" vertex="1" parent="WIyWlLk6GJQsqaUBKTNV-1">
          <mxGeometry x="312" y="280" width="204" height="90" as="geometry" />
        </mxCell>
        <mxCell id="E1ZKKMimq9F_YJrORxx0-21" value="GAME OVER &lt;br&gt;(you win!)" style="rounded=1;whiteSpace=wrap;html=1;fillColor=#d5e8d4;strokeColor=#82b366;" vertex="1" parent="WIyWlLk6GJQsqaUBKTNV-1">
          <mxGeometry x="530" y="1040" width="120" height="60" as="geometry" />
        </mxCell>
        <mxCell id="E1ZKKMimq9F_YJrORxx0-30" style="edgeStyle=orthogonalEdgeStyle;rounded=0;orthogonalLoop=1;jettySize=auto;html=1;exitX=0;exitY=0.5;exitDx=0;exitDy=0;entryX=1;entryY=0.5;entryDx=0;entryDy=0;" edge="1" parent="WIyWlLk6GJQsqaUBKTNV-1" source="E1ZKKMimq9F_YJrORxx0-28" target="E1ZKKMimq9F_YJrORxx0-29">
          <mxGeometry relative="1" as="geometry" />
        </mxCell>
        <mxCell id="E1ZKKMimq9F_YJrORxx0-31" value="YES" style="edgeLabel;html=1;align=center;verticalAlign=middle;resizable=0;points=[];" vertex="1" connectable="0" parent="E1ZKKMimq9F_YJrORxx0-30">
          <mxGeometry x="-0.3241" y="2" relative="1" as="geometry">
            <mxPoint x="-1" y="-17" as="offset" />
          </mxGeometry>
        </mxCell>
        <mxCell id="E1ZKKMimq9F_YJrORxx0-41" style="edgeStyle=orthogonalEdgeStyle;rounded=0;orthogonalLoop=1;jettySize=auto;html=1;exitX=0.5;exitY=1;exitDx=0;exitDy=0;entryX=0.5;entryY=0;entryDx=0;entryDy=0;" edge="1" parent="WIyWlLk6GJQsqaUBKTNV-1" source="E1ZKKMimq9F_YJrORxx0-28" target="E1ZKKMimq9F_YJrORxx0-40">
          <mxGeometry relative="1" as="geometry" />
        </mxCell>
        <mxCell id="E1ZKKMimq9F_YJrORxx0-42" value="NO" style="edgeLabel;html=1;align=center;verticalAlign=middle;resizable=0;points=[];" vertex="1" connectable="0" parent="E1ZKKMimq9F_YJrORxx0-41">
          <mxGeometry x="-0.1875" y="-2" relative="1" as="geometry">
            <mxPoint x="18" as="offset" />
          </mxGeometry>
        </mxCell>
        <mxCell id="E1ZKKMimq9F_YJrORxx0-28" value="Is User&#39;s score over 21?&amp;nbsp;" style="rhombus;whiteSpace=wrap;html=1;" vertex="1" parent="WIyWlLk6GJQsqaUBKTNV-1">
          <mxGeometry x="334" y="400" width="160" height="70" as="geometry" />
        </mxCell>
        <mxCell id="E1ZKKMimq9F_YJrORxx0-32" style="edgeStyle=orthogonalEdgeStyle;rounded=0;orthogonalLoop=1;jettySize=auto;html=1;exitX=0;exitY=0.5;exitDx=0;exitDy=0;entryX=0;entryY=0.5;entryDx=0;entryDy=0;" edge="1" parent="WIyWlLk6GJQsqaUBKTNV-1" source="E1ZKKMimq9F_YJrORxx0-29" target="E1ZKKMimq9F_YJrORxx0-6">
          <mxGeometry relative="1" as="geometry">
            <mxPoint x="120" y="760" as="targetPoint" />
            <Array as="points">
              <mxPoint x="100" y="435" />
              <mxPoint x="100" y="1070" />
            </Array>
          </mxGeometry>
        </mxCell>
        <mxCell id="E1ZKKMimq9F_YJrORxx0-34" value="NO" style="edgeLabel;html=1;align=center;verticalAlign=middle;resizable=0;points=[];" vertex="1" connectable="0" parent="E1ZKKMimq9F_YJrORxx0-32">
          <mxGeometry x="-0.8928" y="1" relative="1" as="geometry">
            <mxPoint x="11" y="-16" as="offset" />
          </mxGeometry>
        </mxCell>
        <mxCell id="E1ZKKMimq9F_YJrORxx0-36" style="edgeStyle=orthogonalEdgeStyle;rounded=0;orthogonalLoop=1;jettySize=auto;html=1;exitX=0.5;exitY=1;exitDx=0;exitDy=0;entryX=0.5;entryY=0;entryDx=0;entryDy=0;" edge="1" parent="WIyWlLk6GJQsqaUBKTNV-1" source="E1ZKKMimq9F_YJrORxx0-29" target="E1ZKKMimq9F_YJrORxx0-35">
          <mxGeometry relative="1" as="geometry" />
        </mxCell>
        <mxCell id="E1ZKKMimq9F_YJrORxx0-37" value="YES" style="edgeLabel;html=1;align=center;verticalAlign=middle;resizable=0;points=[];" vertex="1" connectable="0" parent="E1ZKKMimq9F_YJrORxx0-36">
          <mxGeometry y="2" relative="1" as="geometry">
            <mxPoint x="-17" y="-7" as="offset" />
          </mxGeometry>
        </mxCell>
        <mxCell id="E1ZKKMimq9F_YJrORxx0-29" value="Do they have an &quot;Ace&quot;?" style="rhombus;whiteSpace=wrap;html=1;" vertex="1" parent="WIyWlLk6GJQsqaUBKTNV-1">
          <mxGeometry x="160" y="400" width="110" height="70" as="geometry" />
        </mxCell>
        <mxCell id="E1ZKKMimq9F_YJrORxx0-38" style="edgeStyle=orthogonalEdgeStyle;rounded=0;orthogonalLoop=1;jettySize=auto;html=1;exitX=0;exitY=0.5;exitDx=0;exitDy=0;entryX=0;entryY=0.25;entryDx=0;entryDy=0;" edge="1" parent="WIyWlLk6GJQsqaUBKTNV-1" source="E1ZKKMimq9F_YJrORxx0-35" target="E1ZKKMimq9F_YJrORxx0-6">
          <mxGeometry relative="1" as="geometry" />
        </mxCell>
        <mxCell id="E1ZKKMimq9F_YJrORxx0-39" value="YES" style="edgeLabel;html=1;align=center;verticalAlign=middle;resizable=0;points=[];" vertex="1" connectable="0" parent="E1ZKKMimq9F_YJrORxx0-38">
          <mxGeometry x="-0.952" y="-2" relative="1" as="geometry">
            <mxPoint x="3" y="17" as="offset" />
          </mxGeometry>
        </mxCell>
        <mxCell id="E1ZKKMimq9F_YJrORxx0-43" style="edgeStyle=orthogonalEdgeStyle;rounded=0;orthogonalLoop=1;jettySize=auto;html=1;exitX=1;exitY=0.5;exitDx=0;exitDy=0;entryX=0;entryY=0.5;entryDx=0;entryDy=0;" edge="1" parent="WIyWlLk6GJQsqaUBKTNV-1" source="E1ZKKMimq9F_YJrORxx0-35" target="E1ZKKMimq9F_YJrORxx0-40">
          <mxGeometry relative="1" as="geometry" />
        </mxCell>
        <mxCell id="E1ZKKMimq9F_YJrORxx0-35" value="If &quot;Ace&quot; is counted as 1 instead of 11, is user still over 21?" style="rhombus;whiteSpace=wrap;html=1;" vertex="1" parent="WIyWlLk6GJQsqaUBKTNV-1">
          <mxGeometry x="140.62" y="504" width="148.75" height="82" as="geometry" />
        </mxCell>
        <mxCell id="E1ZKKMimq9F_YJrORxx0-47" style="edgeStyle=orthogonalEdgeStyle;rounded=0;orthogonalLoop=1;jettySize=auto;html=1;exitX=1;exitY=0.5;exitDx=0;exitDy=0;entryX=0;entryY=0.5;entryDx=0;entryDy=0;" edge="1" parent="WIyWlLk6GJQsqaUBKTNV-1" source="E1ZKKMimq9F_YJrORxx0-40" target="E1ZKKMimq9F_YJrORxx0-46">
          <mxGeometry relative="1" as="geometry" />
        </mxCell>
        <mxCell id="E1ZKKMimq9F_YJrORxx0-49" value="YES" style="edgeLabel;html=1;align=center;verticalAlign=middle;resizable=0;points=[];" vertex="1" connectable="0" parent="E1ZKKMimq9F_YJrORxx0-47">
          <mxGeometry x="-0.3409" y="5" relative="1" as="geometry">
            <mxPoint x="1" y="-10" as="offset" />
          </mxGeometry>
        </mxCell>
        <mxCell id="E1ZKKMimq9F_YJrORxx0-51" style="edgeStyle=orthogonalEdgeStyle;rounded=0;orthogonalLoop=1;jettySize=auto;html=1;exitX=0.5;exitY=1;exitDx=0;exitDy=0;entryX=0.5;entryY=0;entryDx=0;entryDy=0;" edge="1" parent="WIyWlLk6GJQsqaUBKTNV-1" source="E1ZKKMimq9F_YJrORxx0-40" target="E1ZKKMimq9F_YJrORxx0-50">
          <mxGeometry relative="1" as="geometry" />
        </mxCell>
        <mxCell id="E1ZKKMimq9F_YJrORxx0-52" value="NO" style="edgeLabel;html=1;align=center;verticalAlign=middle;resizable=0;points=[];" vertex="1" connectable="0" parent="E1ZKKMimq9F_YJrORxx0-51">
          <mxGeometry x="-0.2045" y="-2" relative="1" as="geometry">
            <mxPoint x="18" as="offset" />
          </mxGeometry>
        </mxCell>
        <mxCell id="E1ZKKMimq9F_YJrORxx0-40" value="Would User like another card?" style="rhombus;whiteSpace=wrap;html=1;" vertex="1" parent="WIyWlLk6GJQsqaUBKTNV-1">
          <mxGeometry x="334" y="510" width="160" height="70" as="geometry" />
        </mxCell>
        <mxCell id="E1ZKKMimq9F_YJrORxx0-48" style="edgeStyle=orthogonalEdgeStyle;rounded=0;orthogonalLoop=1;jettySize=auto;html=1;exitX=1;exitY=0.5;exitDx=0;exitDy=0;entryX=1;entryY=0.5;entryDx=0;entryDy=0;" edge="1" parent="WIyWlLk6GJQsqaUBKTNV-1" source="E1ZKKMimq9F_YJrORxx0-46" target="E1ZKKMimq9F_YJrORxx0-1">
          <mxGeometry relative="1" as="geometry">
            <Array as="points">
              <mxPoint x="710" y="545" />
              <mxPoint x="710" y="225" />
            </Array>
          </mxGeometry>
        </mxCell>
        <mxCell id="E1ZKKMimq9F_YJrORxx0-46" value="Draw another card" style="rounded=1;whiteSpace=wrap;html=1;" vertex="1" parent="WIyWlLk6GJQsqaUBKTNV-1">
          <mxGeometry x="560" y="522.5" width="100" height="45" as="geometry" />
        </mxCell>
        <mxCell id="E1ZKKMimq9F_YJrORxx0-54" style="edgeStyle=orthogonalEdgeStyle;rounded=0;orthogonalLoop=1;jettySize=auto;html=1;exitX=0.5;exitY=1;exitDx=0;exitDy=0;entryX=0.5;entryY=0;entryDx=0;entryDy=0;" edge="1" parent="WIyWlLk6GJQsqaUBKTNV-1" source="E1ZKKMimq9F_YJrORxx0-50" target="E1ZKKMimq9F_YJrORxx0-53">
          <mxGeometry relative="1" as="geometry" />
        </mxCell>
        <mxCell id="E1ZKKMimq9F_YJrORxx0-50" value="Dealer plays, if score is less&lt;br/&gt;&amp;nbsp;than 17, keep drawing cards." style="rounded=1;whiteSpace=wrap;html=1;" vertex="1" parent="WIyWlLk6GJQsqaUBKTNV-1">
          <mxGeometry x="337" y="630" width="154" height="60" as="geometry" />
        </mxCell>
        <mxCell id="E1ZKKMimq9F_YJrORxx0-57" style="edgeStyle=orthogonalEdgeStyle;rounded=0;orthogonalLoop=1;jettySize=auto;html=1;exitX=1;exitY=0.5;exitDx=0;exitDy=0;entryX=1;entryY=0.5;entryDx=0;entryDy=0;" edge="1" parent="WIyWlLk6GJQsqaUBKTNV-1" source="E1ZKKMimq9F_YJrORxx0-53" target="E1ZKKMimq9F_YJrORxx0-21">
          <mxGeometry relative="1" as="geometry">
            <Array as="points">
              <mxPoint x="740" y="750" />
              <mxPoint x="740" y="1070" />
            </Array>
          </mxGeometry>
        </mxCell>
        <mxCell id="E1ZKKMimq9F_YJrORxx0-58" value="YES" style="edgeLabel;html=1;align=center;verticalAlign=middle;resizable=0;points=[];" vertex="1" connectable="0" parent="E1ZKKMimq9F_YJrORxx0-57">
          <mxGeometry x="-0.713" y="1" relative="1" as="geometry">
            <mxPoint x="3" y="-9" as="offset" />
          </mxGeometry>
        </mxCell>
        <mxCell id="E1ZKKMimq9F_YJrORxx0-61" style="edgeStyle=orthogonalEdgeStyle;rounded=0;orthogonalLoop=1;jettySize=auto;html=1;exitX=0.5;exitY=1;exitDx=0;exitDy=0;entryX=0.5;entryY=0;entryDx=0;entryDy=0;" edge="1" parent="WIyWlLk6GJQsqaUBKTNV-1" source="E1ZKKMimq9F_YJrORxx0-53" target="E1ZKKMimq9F_YJrORxx0-60">
          <mxGeometry relative="1" as="geometry" />
        </mxCell>
        <mxCell id="E1ZKKMimq9F_YJrORxx0-62" value="NO" style="edgeLabel;html=1;align=center;verticalAlign=middle;resizable=0;points=[];" vertex="1" connectable="0" parent="E1ZKKMimq9F_YJrORxx0-61">
          <mxGeometry x="-0.2079" y="1" relative="1" as="geometry">
            <mxPoint x="16" as="offset" />
          </mxGeometry>
        </mxCell>
        <mxCell id="E1ZKKMimq9F_YJrORxx0-53" value="Has dealer gone over 21?" style="rhombus;whiteSpace=wrap;html=1;" vertex="1" parent="WIyWlLk6GJQsqaUBKTNV-1">
          <mxGeometry x="346" y="720" width="135" height="60" as="geometry" />
        </mxCell>
        <mxCell id="E1ZKKMimq9F_YJrORxx0-63" style="edgeStyle=orthogonalEdgeStyle;rounded=0;orthogonalLoop=1;jettySize=auto;html=1;exitX=0;exitY=0.5;exitDx=0;exitDy=0;entryX=0.5;entryY=0;entryDx=0;entryDy=0;" edge="1" parent="WIyWlLk6GJQsqaUBKTNV-1" source="E1ZKKMimq9F_YJrORxx0-60" target="E1ZKKMimq9F_YJrORxx0-6">
          <mxGeometry relative="1" as="geometry" />
        </mxCell>
        <mxCell id="E1ZKKMimq9F_YJrORxx0-64" value="USER &amp;gt; DEALER" style="edgeLabel;html=1;align=center;verticalAlign=middle;resizable=0;points=[];" vertex="1" connectable="0" parent="E1ZKKMimq9F_YJrORxx0-63">
          <mxGeometry x="-0.6604" y="1" relative="1" as="geometry">
            <mxPoint x="277" y="-11" as="offset" />
          </mxGeometry>
        </mxCell>
        <mxCell id="E1ZKKMimq9F_YJrORxx0-65" style="edgeStyle=orthogonalEdgeStyle;rounded=0;orthogonalLoop=1;jettySize=auto;html=1;exitX=1;exitY=0.5;exitDx=0;exitDy=0;" edge="1" parent="WIyWlLk6GJQsqaUBKTNV-1" source="E1ZKKMimq9F_YJrORxx0-60" target="E1ZKKMimq9F_YJrORxx0-21">
          <mxGeometry relative="1" as="geometry" />
        </mxCell>
        <mxCell id="E1ZKKMimq9F_YJrORxx0-67" style="edgeStyle=orthogonalEdgeStyle;rounded=0;orthogonalLoop=1;jettySize=auto;html=1;exitX=0.5;exitY=1;exitDx=0;exitDy=0;entryX=0.5;entryY=0;entryDx=0;entryDy=0;" edge="1" parent="WIyWlLk6GJQsqaUBKTNV-1" source="E1ZKKMimq9F_YJrORxx0-60" target="E1ZKKMimq9F_YJrORxx0-68">
          <mxGeometry relative="1" as="geometry">
            <mxPoint x="414.5" y="980" as="targetPoint" />
          </mxGeometry>
        </mxCell>
        <mxCell id="E1ZKKMimq9F_YJrORxx0-69" value="SAME SCORE" style="edgeLabel;html=1;align=center;verticalAlign=middle;resizable=0;points=[];" vertex="1" connectable="0" parent="E1ZKKMimq9F_YJrORxx0-67">
          <mxGeometry x="-0.0833" y="3" relative="1" as="geometry">
            <mxPoint x="-3" as="offset" />
          </mxGeometry>
        </mxCell>
        <mxCell id="E1ZKKMimq9F_YJrORxx0-60" value="Compare user score with&lt;br&gt;computer score to see if user&lt;br&gt;score is higher." style="rhombus;whiteSpace=wrap;html=1;" vertex="1" parent="WIyWlLk6GJQsqaUBKTNV-1">
          <mxGeometry x="314" y="830" width="200" height="100" as="geometry" />
        </mxCell>
        <mxCell id="E1ZKKMimq9F_YJrORxx0-66" value="DEALER &amp;gt; USER" style="edgeLabel;html=1;align=center;verticalAlign=middle;resizable=0;points=[];" vertex="1" connectable="0" parent="WIyWlLk6GJQsqaUBKTNV-1">
          <mxGeometry x="270" y="870" as="geometry" />
        </mxCell>
        <mxCell id="E1ZKKMimq9F_YJrORxx0-68" value="GAME OVER &lt;br&gt;(draw!)" style="rounded=1;whiteSpace=wrap;html=1;fillColor=#fff2cc;strokeColor=#d6b656;" vertex="1" parent="WIyWlLk6GJQsqaUBKTNV-1">
          <mxGeometry x="354" y="990" width="120" height="60" as="geometry" />
        </mxCell>
      </root>
    </mxGraphModel>
  </diagram>
</mxfile>
